<svg width="55" height="55" version="1.1" viewBox="0 0 55 55" xmlns="http://www.w3.org/2000/svg">
 <g>
  <circle cx="27.5" cy="27.5" r="27.5" fill="#1a1a1a"/>
  <circle cx="27.5" cy="27.5" r="27" fill="#fff"/>
  <path d="m21.201 11.795a0.5 0.5 0 0 0-0.35352 0.14648l-8.8809 8.8809c-0.01813 0.01573-0.035061 0.032671-0.050781 0.050781-0.07853 0.09126-0.12156 0.20774-0.12109 0.32812v0.58594 0.41406 1.3145 0.085937 0.46484a0.5 0.5 0 0 0 0 0.070313 0.5 0.5 0 0 0 0.14648 0.31836l4.9844 4.9844 0.0625 0.060547 0.32617 0.32617a0.5 0.5 0 0 0 0.050781 0.052734 0.5 0.5 0 0 0 0.33008 0.12109h0.49024 0.50781 0.49219a0.5 0.5 0 0 1 0.33008 0.12109 0.5 0.5 0 0 1 0.046875 0.050781l0.005859 0.005859c0.56014 0.62001 1.2948 1.0459 2.1016 1.2246 0.27025 0.05985 0.54826 0.095206 0.83008 0.097656 2.1219 0 3.8526-1.6541 3.9863-3.7422l0.00586-0.005859v-0.10352c0.001834-0.049759 0.007812-0.098232 0.007812-0.14844 0-0.050207-0.005978-0.098679-0.007812-0.14844v-0.099609a0.5 0.5 0 0 1 0.001953-0.050781 0.5 0.5 0 0 1 0.001953-0.00586 0.5 0.5 0 0 1 0.14258-0.29687l0.14258-0.14453 3.9551-3.9531 0.24805-0.25a0.5 0.5 0 0 0 0.14648-0.35352 0.5 0.5 0 0 0-0.14648-0.35352l-0.35352-0.35352-2.2266-2.2246-0.24805-0.25a0.5 0.5 0 0 0-0.35352-0.14648 0.5 0.5 0 0 0-0.35352 0.14648l-4.3477 4.3477a0.5 0.5 0 0 1-0.35352 0.14453 0.5 0.5 0 0 1-0.021485-0.001953v0.001953l-0.003906 0.003907c-0.074283-0.004109-0.14735-0.011719-0.22266-0.011719-1.0011 0.0087-1.9513 0.39604-2.6758 1.0664l0.001953-0.005859c-0.09378 0.09376-0.22091 0.1465-0.35352 0.14648-0.13232-7.32e-4 -0.25837-0.05253-0.35156-0.14648h-0.001953l-1.2012-1.2012-0.32617-0.33008a0.5 0.5 0 0 1-0.027344-0.023438 0.5 0.5 0 0 1-0.14648-0.35352 0.5 0.5 0 0 1 0.14648-0.35352l0.35352-0.35352 4.2969-4.2988 0.70703-0.70703a0.5 0.5 0 0 1 0.30664-0.14453l7.498-0.001953 0.35156 0.001953h0.64844c0.1326 2.5e-5 0.25976 0.05271 0.35352 0.14648 6e-3 0.0057 0.011798 0.011608 0.017578 0.017578l0.37305 0.37305 0.31641 0.31445 4.3809 4.3828 1.7695 1.7695c0.97628 0.97629 2.5589 0.97628 3.5352 0 0.0025-0.0024 0.005213-0.005312 0.007813-0.007812 0.48445-0.48841 0.72584-1.1271 0.72461-1.7656-0.0013-0.63852-0.24556-1.2768-0.73242-1.7637l-1.7676-1.7656-5.8457-5.8477-0.68945-0.68945c-0.0057-0.0061-0.011608-0.011848-0.017578-0.017578-0.09375-0.09377-0.22091-0.14647-0.35352-0.14648h-1-10.598-1zm11.299 11.705c-2.2091-1e-6 -4 1.7909-4 4 1e-6 2.2091 1.7909 4 4 4 1.0011-0.0087 1.9513-0.39604 2.6758-1.0664l-0.001953 0.005859c0.09378-0.09376 0.22092-0.1465 0.35352-0.14648 0.13232 7.29e-4 0.25837 0.052528 0.35156 0.14648h0.001953l1.2012 1.2012 0.32617 0.33008a0.5 0.5 0 0 1 0.027344 0.023438 0.5 0.5 0 0 1 0.14648 0.35352 0.5 0.5 0 0 1-0.14648 0.35352l-0.35352 0.35352-4.2969 4.2988-0.70703 0.70703a0.5 0.5 0 0 1-0.30664 0.14453l-7.498 0.001953-0.35156-0.001953h-0.64844c-0.1326-2.9e-5 -0.25977-0.05271-0.35352-0.14648-6e-3 -0.0059-0.011858-0.011608-0.017578-0.017578l-0.37305-0.37305-0.31641-0.31445-4.3809-4.3828-1.7695-1.7695c-0.97628-0.97629-2.5589-0.97627-3.5352 0-0.0025 0.0026-0.005213 0.005312-0.007813 0.007812-0.48445 0.48841-0.72582 1.1271-0.72461 1.7656 0.0013 0.63852 0.2456 1.2767 0.73242 1.7637l1.7676 1.7656 5.8457 5.8477 0.68945 0.68945c0.0057 0.0062 0.011638 0.011858 0.017578 0.017578 0.09374 0.09378 0.22091 0.14647 0.35352 0.14648h1 10.598 1a0.5 0.5 0 0 0 0.35352-0.14648l8.8809-8.8809c0.01813-0.01573 0.035051-0.032641 0.050781-0.050781 0.07853-0.09126 0.12156-0.20773 0.12109-0.32812v-0.58594-0.41406-1.3145-0.085937-0.46484a0.5 0.5 0 0 0 0-0.070313 0.5 0.5 0 0 0-0.14648-0.31836l-4.9844-4.9844-0.0625-0.060547-0.32617-0.32617a0.5 0.5 0 0 0-0.050781-0.052734 0.5 0.5 0 0 0-0.33008-0.12109h-0.49024-0.50781-0.49219a0.5 0.5 0 0 1-0.33008-0.12109 0.5 0.5 0 0 1-0.046875-0.050781l-0.005859-0.005859c-0.56014-0.62001-1.2948-1.0459-2.1016-1.2246-0.27026-0.05985-0.54826-0.095216-0.83008-0.097656zm-9.5605 0.025391c0.1149 0.012585 0.2281 0.030626 0.33984 0.052734-0.11137-0.021994-0.22536-0.040194-0.33984-0.052734zm0.44727 0.078125c0.075537 0.017141 0.15077 0.035288 0.22461 0.05664-0.07406-0.021402-0.14885-0.039471-0.22461-0.05664zm0.40234 0.11328c0.046017 0.015686 0.091477 0.031527 0.13672 0.048828-0.045176-0.017267-0.090773-0.03317-0.13672-0.048828zm0.30274 0.11523c0.098666 0.042929 0.19669 0.0882 0.29102 0.13867-0.094581-0.050581-0.19208-0.095664-0.29102-0.13867zm0.41016 0.20898c0.05882 0.034159 0.11696 0.068442 0.17383 0.10547-0.056664-0.03684-0.11523-0.071469-0.17383-0.10547zm0.31445 0.20117c0.045867 0.032723 0.090369 0.066976 0.13477 0.10156-0.044325-0.034462-0.088981-0.068953-0.13477-0.10156zm-2.3164 0.75781h0.005859c1.3784 0.0032 2.4941 1.1217 2.4941 2.5-9.16e-4 1.1473-0.77563 2.1113-1.8301 2.4043-0.21168 0.05882-0.43374 0.091267-0.66406 0.091797v0.003906h-0.005859c-1.3807 0-2.5-1.1193-2.5-2.5-2e-6 -0.57777 0.19819-1.1079 0.52734-1.5312 0.05717-0.07354 0.11878-0.14422 0.18359-0.21094 0.45377-0.46692 1.0865-0.75781 1.7891-0.75781zm9.9941 0h0.003906c1.3807-2e-6 2.5 1.1193 2.5 2.5 3e-6 0.57777-0.19819 1.1079-0.52734 1.5312-0.05718 0.07354-0.11877 0.14423-0.18359 0.21094-0.45334 0.46648-1.0873 0.75728-1.7891 0.75781h-0.003906c-1.3784-0.0032-2.4941-1.1217-2.4941-2.5 9.17e-4 -1.1473 0.77563-2.1113 1.8301-2.4043 0.21167-0.05882 0.43374-0.091257 0.66406-0.091797v-0.003906z" fill="#1a1a1a" stroke-width="0"/>
 </g>
</svg>
